<?xml version="1.0" encoding="utf-8"?>
<!-- Generator: Adobe Illustrator 18.1.1, SVG Export Plug-In . SVG Version: 6.00 Build 0)  -->
<svg version="1.1" id="Layer_1" xmlns="http://www.w3.org/2000/svg" xmlns:xlink="http://www.w3.org/1999/xlink" x="0px" y="0px"
	 viewBox="0 0 132 59" enable-background="new 0 0 132 59" xml:space="preserve">
<g>
	<g>
		<defs>
			<rect id="SVGID_1_" x="0" y="0" width="132" height="59"/>
		</defs>
		<clipPath id="SVGID_2_">
			<use xlink:href="#SVGID_1_"  overflow="visible"/>
		</clipPath>
		<path clip-path="url(#SVGID_2_)" fill="#DEDEDD" d="M0,0.2h10.4c9.6,0,15.2,5.5,15.2,13.3v0.1c0,7.8-5.7,13.5-15.4,13.5H0V0.2z"/>
	</g>
	<polygon fill="#DEDEDD" points="29.4,0.2 29.4,27.1 51.3,27.1 51.3,20.8 36.8,20.8 36.8,16.5 49.8,16.5 49.8,10.6 36.8,10.6 
		36.8,6.5 51.1,6.5 51.1,0.2 	"/>
	<polygon fill="#DEDEDD" points="64.4,0 53,27.1 60.8,27.1 62.7,22.3 73.1,22.3 78.9,36 87.1,36 71.6,0 	"/>
	<polygon fill="#DEDEDD" points="71,16.5 68,8.9 64.9,16.5 	"/>
	<polygon fill="#DEDEDD" points="80.7,0.2 80.7,6.7 88.8,6.7 88.8,27.1 96.3,27.1 96.3,6.7 104.4,6.7 104.4,0.2 	"/>
	<polygon fill="#DEDEDD" points="124.5,0.2 124.5,10.3 114.9,10.3 114.9,0.2 107.5,0.2 107.5,27.1 114.9,27.1 114.9,16.9 
		124.5,16.9 124.5,27.1 132,27.1 132,0.2 	"/>
	<polygon fill="#DEDEDD" points="109.5,31.1 109.5,37.6 124.4,37.6 124.4,42 111.1,42 111.1,48.1 124.4,48.1 124.4,52.3 109.7,52.3 
		109.7,58.8 132,58.8 132,31.1 	"/>
	<polygon fill="#DEDEDD" points="99.7,31.1 97.8,36.1 87.1,36.1 85,31.1 76.8,31.1 88.6,59 96,59 107.8,31.1 	"/>
	<polygon fill="#DEDEDD" points="89.3,42 92.4,49.9 95.5,42 	"/>
	<polygon fill="#DEDEDD" points="63.3,31.1 63.3,52.1 55,52.1 55,58.8 79.3,58.8 79.3,52.1 71,52.1 71,31.1 	"/>
	<polygon fill="#DEDEDD" points="29.2,31.1 29.2,37.6 44,37.6 44,42 30.7,42 30.7,48.1 44,48.1 44,52.3 29.4,52.3 29.4,58.8 
		51.6,58.8 51.6,31.1 	"/>
	<g>
		<defs>
			<rect id="SVGID_3_" x="0" y="0" width="132" height="59"/>
		</defs>
		<clipPath id="SVGID_4_">
			<use xlink:href="#SVGID_3_"  overflow="visible"/>
		</clipPath>
		<path clip-path="url(#SVGID_4_)" fill="#DEDEDD" d="M25.5,58.8H12.4c-4.2,0-7.2-1.1-9-3C1.8,54.2,1,52.1,1,49.3v-0.1
			c0-4.2,2.3-7,5.7-8.5l-6.6-9.6h8.9l5.6,8.4h0.1h3.3v-8.4h7.7V58.8z"/>
	</g>
</g>
</svg>
